<svg width="48" height="48" viewBox="0 0 48 48" fill="none" xmlns="http://www.w3.org/2000/svg">
<path d="M1.42499 24C1.42499 33.825 7.72499 42.15 16.425 45.225V2.775C7.72499 5.85 1.42499 14.175 1.42499 24Z" fill="#428BC1"/>
<path d="M46.425 24C46.425 14.175 40.2 5.85 31.425 2.775V45.225C40.2 42.15 46.425 33.825 46.425 24Z" fill="#ED4C5C"/>
<path d="M16.425 45.225C18.75 46.05 21.3 46.5 23.925 46.5C26.55 46.5 29.1 46.05 31.425 45.225V2.775C29.1 1.95 26.625 1.5 23.925 1.5C21.225 1.5 18.75 1.95 16.425 2.775V45.225Z" fill="white"/>
</svg>
