<svg width="48" height="48" viewBox="0 0 48 48" fill="none" xmlns="http://www.w3.org/2000/svg">
<path d="M16.5 45.225V34.875L8.77499 40.575C10.95 42.6 13.575 44.175 16.5 45.225Z" fill="#2A5F9E"/>
<path d="M31.5 45.225C34.425 44.175 37.05 42.6 39.225 40.575L31.5 34.8V45.225Z" fill="#2A5F9E"/>
<path d="M2.77499 31.5C2.99999 32.25 3.29999 32.925 3.67499 33.675L6.59999 31.5H2.77499Z" fill="#2A5F9E"/>
<path d="M41.4 31.5L44.325 33.675C44.625 33 44.925 32.25 45.225 31.5H41.4Z" fill="#2A5F9E"/>
<path d="M17.625 28.5H1.95001C2.17501 29.55 2.47501 30.525 2.77501 31.5H6.60001L3.67501 33.675C4.27501 34.95 4.95001 36.075 5.77501 37.2L13.5 31.5H16.5V33L7.72501 39.45L8.77501 40.5L16.5 34.875V45.225C17.475 45.6 18.45 45.825 19.5 46.05V28.5H17.625Z" fill="white"/>
<path d="M46.05 28.5H28.5V46.05C29.55 45.825 30.525 45.525 31.5 45.225V34.875L39.225 40.5C40.275 39.525 41.175 38.475 42.075 37.35L34.05 31.5H39.15L43.725 34.875C43.95 34.5 44.175 34.05 44.325 33.675L41.4 31.5H45.225C45.525 30.525 45.825 29.55 46.05 28.5Z" fill="white"/>
<path d="M5.77499 37.2C6.37499 38.025 6.97499 38.775 7.64999 39.525L16.5 33.075V31.575H13.5L5.77499 37.2Z" fill="#ED4C5C"/>
<path d="M34.125 31.5L42.15 37.35C42.45 36.975 42.675 36.6 42.975 36.225C43.05 36.15 43.05 36.075 43.125 36.075C43.35 35.7 43.65 35.25 43.875 34.875L39.15 31.5H34.125Z" fill="#ED4C5C"/>
<path d="M31.5 2.775V13.125L39.225 7.425C37.05 5.4 34.425 3.825 31.5 2.775Z" fill="#2A5F9E"/>
<path d="M16.5 2.775C13.575 3.825 10.95 5.4 8.77499 7.425L16.5 13.2V2.775Z" fill="#2A5F9E"/>
<path d="M45.225 16.5C45 15.75 44.7 15.075 44.325 14.325L41.4 16.5H45.225Z" fill="#2A5F9E"/>
<path d="M6.59999 16.5L3.67499 14.325C3.37499 15.075 3.07499 15.75 2.77499 16.5H6.59999Z" fill="#2A5F9E"/>
<path d="M30.375 19.5H45.975C45.75 18.45 45.45 17.475 45.15 16.5H41.325L44.25 14.325C43.65 13.05 42.975 11.925 42.15 10.8L34.5 16.5H31.5V15L40.275 8.55L39.225 7.5L31.5 13.125V2.775C30.525 2.4 29.55 2.175 28.5 1.95V19.5H30.375Z" fill="white"/>
<path d="M1.95001 19.5H19.5V1.95C18.45 2.175 17.475 2.475 16.5 2.775V13.125L8.77501 7.5C7.72501 8.475 6.82501 9.525 5.92501 10.65L13.95 16.5H8.85001L4.27501 13.125C4.05001 13.5 3.82501 13.95 3.67501 14.325L6.60001 16.5H2.77501C2.47501 17.475 2.17501 18.45 1.95001 19.5Z" fill="white"/>
<path d="M42.225 10.8C41.625 9.975 41.025 9.225 40.35 8.475L31.5 14.925V16.425H34.5L42.225 10.8Z" fill="#ED4C5C"/>
<path d="M13.875 16.5L5.92501 10.65C5.62501 11.025 5.40001 11.4 5.10001 11.775C5.02501 11.85 5.02501 11.925 4.95001 11.925C4.72501 12.3 4.42501 12.75 4.20001 13.125L8.77501 16.5H13.875Z" fill="#ED4C5C"/>
<path d="M46.05 19.5H28.5V1.95C27.075 1.65 25.575 1.5 24 1.5C22.425 1.5 20.925 1.65 19.5 1.95V19.5H1.95C1.65 20.925 1.5 22.425 1.5 24C1.5 25.575 1.65 27.075 1.95 28.5H19.5V46.05C20.925 46.35 22.425 46.5 24 46.5C25.575 46.5 27.075 46.35 28.5 46.05V28.5H46.05C46.35 27.075 46.5 25.575 46.5 24C46.5 22.425 46.35 20.925 46.05 19.5Z" fill="#ED4C5C"/>
</svg>
